<svg width="31" height="32" viewBox="0 0 31 32" fill="none" xmlns="http://www.w3.org/2000/svg">
<path d="M15.495 31.9026C23.97 31.9026 30.99 24.8976 30.99 16.4076C30.99 7.9326 23.97 0.912598 15.48 0.912598C7.005 0.912598 0 7.9326 0 16.4076C0 24.8976 7.02 31.9026 15.495 31.9026ZM6.465 6.9726C7.965 5.5476 9.78 4.4526 11.805 3.8526C10.74 4.9176 9.84 6.4176 9.165 8.24759C8.115 7.9176 7.21501 7.4826 6.465 6.9726ZM19.2001 3.8676C21.21 4.4676 23.025 5.5476 24.51 6.9726C23.775 7.49759 22.8751 7.9176 21.825 8.2626C21.15 6.4176 20.25 4.9176 19.2001 3.8676ZM16.545 4.3476C17.79 4.9476 18.93 6.56759 19.74 8.7726C18.75 8.95259 17.685 9.0576 16.545 9.1026V4.3476ZM11.25 8.7726C12.075 6.56759 13.2001 4.9476 14.445 4.3476V9.1026C13.305 9.0576 12.24 8.95259 11.25 8.7726ZM2.445 15.3577C2.65501 12.8076 3.61501 10.4526 5.085 8.5176C6 9.19259 7.185 9.7776 8.565 10.2126C8.17501 11.7726 7.92 13.5125 7.845 15.3577H2.445ZM23.145 15.3577C23.07 13.5125 22.815 11.7726 22.425 10.2126C23.805 9.7776 24.99 9.20759 25.89 8.5176C27.375 10.4526 28.335 12.8076 28.545 15.3577H23.145ZM9.99 15.3577C10.065 13.7226 10.29 12.1626 10.635 10.7526C11.835 10.9926 13.1099 11.1426 14.445 11.2026V15.3577H9.99ZM16.545 15.3577V11.2026C17.88 11.1426 19.155 10.9926 20.355 10.7526C20.7 12.1626 20.925 13.7226 21 15.3577H16.545ZM2.445 17.4576H7.845C7.92 19.3326 8.17501 21.0876 8.565 22.6626C7.2 23.0976 6.03 23.6675 5.13 24.3426C3.63 22.3925 2.65501 20.0226 2.445 17.4576ZM9.99 17.4576H14.445V21.6876C13.125 21.7476 11.835 21.8976 10.65 22.1226C10.29 20.6976 10.05 19.1075 9.99 17.4576ZM16.545 21.6876V17.4576H21C20.94 19.1075 20.7 20.6976 20.34 22.1226C19.155 21.8976 17.88 21.7476 16.545 21.6876ZM22.425 22.6626C22.83 21.0876 23.07 19.3326 23.145 17.4576H28.545C28.335 20.0226 27.3601 22.3925 25.86 24.3426C24.9601 23.6675 23.79 23.0976 22.425 22.6626ZM16.545 23.7876C17.6699 23.8325 18.735 23.9376 19.71 24.1176C18.9 26.2776 17.775 27.8826 16.545 28.4675V23.7876ZM11.28 24.1176C12.255 23.9376 13.32 23.8325 14.445 23.7876V28.4675C13.215 27.8826 12.09 26.2776 11.28 24.1176ZM6.50999 25.8876C7.245 25.3776 8.145 24.9577 9.18 24.6275C9.85501 26.4276 10.74 27.8976 11.775 28.9475C9.795 28.3476 7.995 27.2827 6.50999 25.8876ZM21.81 24.6275C22.845 24.9577 23.745 25.3776 24.4801 25.8876C22.995 27.2827 21.1949 28.3476 19.215 28.9475C20.25 27.8976 21.135 26.4276 21.81 24.6275Z" fill="white"/>
</svg>
